<svg xmlns="http://www.w3.org/2000/svg" width="161" height="42" fill="#fff" xmlns:v="https://vecta.io/nano"><path d="M3.553 32.89c3.42-.74 5.9-1.63 7.44-2.67s2.31-2.38 2.31-4.02a11.81 11.81 0 0 0-.51-3.45c-.32-1.14-.77-2.07-1.35-2.79-.56-.72-1.19-1.08-1.89-1.08-.4 0-.78.15-1.14.45-.34.28-.61.64-.81 1.08s-.3.86-.3 1.26c0 .34.07.61.21.81.32.44 1.05.73 2.19.87 1.16.12 2.75.18 4.77.18h2.97l.24 2.25-.24 2.22-3.81.03c-2.42 0-4.36-.2-5.82-.6s-2.48-1.21-3.06-2.43c-.36-.78-.54-1.64-.54-2.58 0-1.18.25-2.35.75-3.51.5-1.18 1.19-2.14 2.07-2.88.88-.76 1.84-1.14 2.88-1.14 1.2 0 2.29.52 3.27 1.56s1.75 2.4 2.31 4.08.84 3.43.84 5.25c0 2.8-1.01 5.16-3.03 7.08s-4.81 3.22-8.37 3.9l-1.38-3.87zm13.758-9.36h6.24l.24 2.25-.24 2.22h-6.24v-4.47zm6.197 0h1.44c1.98 0 3.38-.17 4.2-.51s1.23-.86 1.23-1.56c-.02-.44-.25-1.28-.69-2.52l-.96-2.52 3.18-1.74c.4.84.8 1.96 1.2 3.36.4 1.38.6 2.59.6 3.63-.02 2.04-.71 3.61-2.07 4.71-1.36 1.08-3.37 1.62-6.03 1.62h-2.1v-4.47zm2.79-15.03l2.49 2.52-1.65 1.65-.84.84-1.23-1.26-1.26-1.23 2.49-2.52zm5.25 0l2.49 2.52-1.65 1.65-.84.84-1.23-1.26-1.26-1.23 2.49-2.52zm4.629 24.39c3.42-.74 5.9-1.63 7.44-2.67s2.31-2.38 2.31-4.02a11.81 11.81 0 0 0-.51-3.45c-.32-1.14-.77-2.07-1.35-2.79-.56-.72-1.19-1.08-1.89-1.08-.4 0-.78.15-1.14.45-.34.28-.61.64-.81 1.08s-.3.86-.3 1.26c0 .34.07.61.21.81.32.44 1.05.73 2.19.87 1.16.12 2.75.18 4.77.18h2.97l.24 2.25-.24 2.22-3.81.03c-2.42 0-4.36-.2-5.82-.6s-2.48-1.21-3.06-2.43c-.36-.78-.54-1.64-.54-2.58 0-1.18.25-2.35.75-3.51.5-1.18 1.19-2.14 2.07-2.88.88-.76 1.84-1.14 2.88-1.14 1.2 0 2.29.52 3.27 1.56s1.75 2.4 2.31 4.08.84 3.43.84 5.25c0 2.8-1.01 5.16-3.03 7.08s-4.81 3.22-8.37 3.9l-1.38-3.87zm13.758-9.36h6.24l.24 2.25-.24 2.22h-6.24v-4.47zm6.197 0h.21c1.8 0 3.14-.09 4.02-.27.88-.2 1.46-.49 1.74-.87s.42-.93.42-1.65c0-.58-.1-1.53-.3-2.85l3.09-.6c.28 1.46.42 3.11.42 4.95.08.34.3.64.66.9s.88.39 1.56.39h.18l.24 2.25-.24 2.22h-.18c-.92 0-1.77-.25-2.55-.75-.78-.52-1.39-1.17-1.83-1.95l.75.15c-.54.92-1.42 1.58-2.64 1.98-1.2.38-2.98.57-5.34.57h-.21v-4.47zm5.43 6.54l2.4 2.4-2.4 2.4-2.4-2.4 2.4-2.4zm-5.67 0l2.4 2.4-2.4 2.4-2.4-2.4 2.4-2.4zm2.85 3.84l2.13 2.1-2.13 2.1-.69-.69-1.41-1.41 2.1-2.1zm9.329-10.38h.21c1.8 0 3.14-.09 4.02-.27.88-.2 1.46-.49 1.74-.87s.42-.93.42-1.65c0-.58-.1-1.53-.3-2.85l3.09-.6c.28 1.46.42 3.11.42 4.95.08.34.3.64.66.9s.88.39 1.56.39h.18l.24 2.25-.24 2.22h-.18c-.92 0-1.77-.25-2.55-.75-.78-.52-1.39-1.17-1.83-1.95l.75.15c-.54.92-1.42 1.58-2.64 1.98-1.2.38-2.98.57-5.34.57h-.21v-4.47zm0 6.99l2.49 2.52-1.65 1.65-.84.84-1.23-1.26-1.26-1.23 2.49-2.52zm5.25 0l2.49 2.52-1.65 1.65-.84.84-1.23-1.26-1.26-1.23 2.49-2.52zm6.689-6.99h6.24l.24 2.25-.24 2.22h-6.24v-4.47zm6.197 0h1.59c1.44 0 2.47-.16 3.09-.48.64-.32.96-.8.96-1.44 0-.42-.21-1.24-.63-2.46l-.99-2.73 3.15-1.74c.38.84.77 1.97 1.17 3.39.42 1.4.63 2.63.63 3.69 0 2.04-.64 3.59-1.92 4.65-1.26 1.06-3.08 1.59-5.46 1.59h-1.59v-4.47zm1.77-12.84l2.79-2.76 2.76 2.76-.93.93-1.83 1.83-2.79-2.76zm71.91.511a3.3 3.3 0 0 0 .108-1.296 3.29 3.29 0 0 0-.401-1.236c-.214-.381-.503-.716-.848-.984s-.74-.465-1.162-.578-.862-.141-1.294-.082-.849.205-1.225.427a3.26 3.26 0 0 0-.964.87 3.28 3.28 0 0 0-.553 1.176l-2.008 7.513-2.888 10.809a9.89 9.89 0 0 1-1.699 3.454 9.85 9.85 0 0 1-2.888 2.539 9.82 9.82 0 0 1-7.47.986 9.83 9.83 0 0 1-3.444-1.703 9.87 9.87 0 0 1-2.533-2.895 9.88 9.88 0 0 1-.983-7.49l1.38-5.168c.179-.826.035-1.69-.404-2.411s-1.138-1.247-1.952-1.465a3.28 3.28 0 0 0-3.974 2.176l-1.457 5.446-.137.547a16.49 16.49 0 0 0 1.926 12.172c2.19 3.654 5.71 6.312 9.816 7.416a16.37 16.37 0 0 0 12.2-1.501 16.44 16.44 0 0 0 7.736-9.576c.053-.177.105-.359.15-.541l2.421-9.067.103-.403c.081-.337.15-.672.21-1.008.093-.193.169-.394.226-.601l2.008-7.524zm-22.52 8.086l-1.375 5.141c-.121.42-.158.861-.107 1.296a3.31 3.31 0 0 0 .401 1.236 3.3 3.3 0 0 0 .848.984 3.28 3.28 0 0 0 1.162.578c.422.113.862.141 1.294.082s.849-.205 1.225-.427a3.28 3.28 0 0 0 .964-.87 3.31 3.31 0 0 0 .553-1.176l1.448-5.419.137-.545c.935-4.146.233-8.494-1.959-12.132a16.41 16.41 0 0 0-9.797-7.386 16.37 16.37 0 0 0-12.168 1.483c-3.712 2.052-6.489 5.465-7.748 9.524a12.65 12.65 0 0 0-.149.542l-2.434 9.069c-.038.135-.074.271-.104.403-.082.335-.15.67-.21 1.007a3.38 3.38 0 0 0-.226.601l-2.008 7.529a3.3 3.3 0 0 0 1.125 3.41 3.28 3.28 0 0 0 1.732.704 3.27 3.27 0 0 0 1.834-.357 3.29 3.29 0 0 0 1.376-1.373c.088-.167.162-.34.22-.52a2.78 2.78 0 0 0 .051-.171l2.008-7.513 2.89-10.806c.675-2.528 2.325-4.684 4.586-5.993a9.82 9.82 0 0 1 7.47-.986c2.522.678 4.672 2.332 5.977 4.599a9.9 9.9 0 0 1 .984 7.49zm10.916-11.739a3.74 3.74 0 0 0 2.387-.824c.677-.543 1.145-1.305 1.324-2.155a3.76 3.76 0 0 0-.34-2.508c-.399-.771-1.052-1.38-1.849-1.723a3.74 3.74 0 0 0-2.52-.155 3.75 3.75 0 0 0-2.046 1.483 3.77 3.77 0 0 0-.643 2.448 3.76 3.76 0 0 0 1.051 2.301 3.74 3.74 0 0 0 1.205.831 3.71 3.71 0 0 0 1.431.302z"/></svg>